<mxfile host="app.diagrams.net" modified="2021-06-16T19:23:04.551Z" agent="5.0 (Macintosh; Intel Mac OS X 10_15_7) AppleWebKit/537.36 (KHTML, like Gecko) Chrome/91.0.4472.77 Safari/537.36" etag="baPe83inClpn01BuVFSU" version="14.7.10" type="github">
  <diagram id="VAzS1f8sDVs1FdIDaeco" name="Page-1">
    <mxGraphModel dx="1298" dy="866" grid="0" gridSize="10" guides="1" tooltips="1" connect="1" arrows="1" fold="1" page="1" pageScale="1" pageWidth="827" pageHeight="1169" math="0" shadow="0">
      <root>
        <mxCell id="0" />
        <mxCell id="1" parent="0" />
        <mxCell id="Vt1mPxma9DSWi93VX6_u-1" value="" style="shape=image;verticalLabelPosition=bottom;labelBackgroundColor=#ffffff;verticalAlign=top;aspect=fixed;imageAspect=0;image=data:image/png,iVBORw0KGgoAAAANSUhEUgAAAX8AAACECAMAAABPuNs7AAABJlBMVEX////hU0OMMiMgHB0AAADVal3iUkGHLR3GaVyILyDgTDqIJhK5kIsdGRrsm5PysKkZFBVeHxmxsLCPNijT0tLu7u7ZUEDcYlTc29v09PSSNSbAv7/o6OgsKCng4ODkaFtKSEj98O5bWVk2MzQQCQsLAAPy5+X99POWSDySkZGgTUDgSDaGIAehoKDaVkckHyC8u7uEhITzvbdwb29BPT5mZGTJpqHlbWH20MycVEnfQS1WVFR1c3N0PzrLysqKiYmkOyzRtLDZe2/64+HgzMm3hX3Le2/ofnSobWWCDgC2h4H10s/sk4rzxMDm19WucWiANCm/UEVsLSaCSkORVEtpOjVTFQ6qWEyBRD5qJyCsSD1aJB+IPjK3QDCxQDHOj4esYVflo5t9c+prAAAM00lEQVR4nO2de0PayBrGuYxBodFpCDUR0JQEBTVchOhaMK5H91h329q63XbP2t223/9LnLnlxj3dmmAzz18hJAF+72Vm3pmEVIqLi4uLi4uLi4uLi4uLi4uLi+s7SY37CyRa6vHpyVHcXyKx2jtuHOaEg52jvbi/SRKFfL+Qy6wJaSF/wi0QtYjvZzKYfzotHHALRCr1uFHA9Bn/NI+BKOX4vo8/jYG4v1gitOf6foA/jgHeEj+8fL5P+Kd94jHw4NrN+OmP8E+n8zvP4/6GP7Z2i5lZ/AXO/2HF+ccrzj9ecf7xivOPV5x/vOL84xXnH684/6i0e/Gf9Z8uRws6ofnv7V798t/XvC4UVhenhysHB63r9SC7cPyfXzx5WTwsrB5cv4722z9y7V4UDnNrK0JaEPIHL1qvvDhYmP/em6vb4s1hIZfL5FYF4cUmj4GFdXVawGhXWG0Z2QDHASG7GP/di1+x37NSHeKPL3L9W7y/6vHoyWHGzx9zpXHw+vJyHv/LNxe3hZtD3xQB5Z9OH7yK+3c9Fj0pjPL34mAO/9bLzGEheIjDP78e9+96LJrCn/j3bP7pViOXGdV8/iW5LJlSWfav5lJVlb1nyyVnpyLLlZFzFVsyzY5dCZ7ql++dCrqYMnHNWEmx7e1FAT2wQvDPpIUR/mP45/IvnQ+yAKta67j7ejXLqpVTKUlrw6rWJDttS2+3tW7Jd27H0uv4VMO3WxrU/Bo0nTfkoVaFbb3WdA+t9JAsGX+MDmF/uBzL+Rbm32i8fbfSEgTh3/A3YR2KWSwRggHzYxlACMEwZQH0HtpvITJdYIiiCOuG7Zxa0QA7NQvrosT29vC5ngyNXlNF50MRXwG0HTtLwDAM0MSn4I+p6/IDIQ2l6fzTLv9ipvH+z7u7+/uzt43VTWwa4dv4S4ARJDI06oIywC+6JmD768OUuw11ligqfcN3qggY1aF/Lzqc8leHwNtlSM6H42ubkvOW0X9YsotpDv8c9vvfz566+vDh7PTdOxIHofmX6xi/aAAACQFAswXhL/Z11zaG6W3XWUah+GEdxQXZ6FNHn8y/B2iIkYARATUAAQ97fegcDKQJ3zFqzeS/1nh/d3f3dEQf7u9QHLTC89fwTxfFoSQNIKVFdhP+2bbIeDluCxlREiSSQSOmKZ3Tg0CZnNtl+afNLNfDO21yQUO3UHtCbEXaAMJf1EXRoCbMGsMI+M7TDP6t1fd/3H/4MIqfRsH9H+8/jrbPc/grBAAkaZf4rVgl25Q/MkzNajPnFI3BkHq8CDE8tWe4dMtVkeQrck21TGQ36cEAX1Al1jVwM6Lo0I0hmniQlXtdnZp/UJrwLSPWDP7pFtLqlz//d3fvZ49enL0/LRaLa+P4Z/I3cZsIzsk2tUWbtK4yyxayqm6zCICSmqrUCCWAIVXadeTkrC0gtoBW4Nr0WIOAlqltFbxN4gbqOIZY4seBU2qTxNQf7d/GoFn807gohBL9yupf+7+f3X94en929vbT6ekEv1+E//b5cKBXWXsqitgXSRKh/Osm3qYNL80MtsdfNbuWJlLTpZp14rz+S5NdWaNGchWJLZZcFNKSkGQl+S5NPkasLsEgYCZ/xwy4sUWh8Ak5/Qz2c/M/4lhyQp4kER9/UaSxQEDS3o1MjgEl59QK67FT/prvsjJtaOuUJ3FuGgqpEmlzCHTG3/eRbeV7Ufx2LcKfhUJ6UsIJx5+qotidMf46gSFn8f462Wa+G0jS6rZd7sER/qpGs49JX9FwYp0bCzrBIvk+RsmS8HtE/LG+B/9SeTjoV9s0z/v4s56jgu0iZokjj/JXFbPW16vQ33cioo0vaXBTTu+nTvtHrKHHPSDa/9RK3sckj3/ZqtOBKevmjPPHyUNsT+Bfaupo3OCe6+Mvs2EFy+blAP8u4Y9bbsp/QIyUUP5N2vXGo6iw/JV+nYweDFAf8f9g9kGc6+P8cUeX8q89Sv7kzqP02nwDzORvEkeFoNaUpGn5Zwr/EhkNiEA/lzpWMP872cd5HeR//sj5C6zz82xzdfXvf37e2tpCR0+3wyz+Mqn+wAEZdEExDH86/hJFCdML9n9smn3abl+e5R9WIGL5R3mM/BH5zZWVd//8tb/fKK7lcrjs9uzZs7+xHZARwo6/2JiXtpLtUPzpEIGlmAB/J/t4tRw70P9h/CuPkH/r4/4W6fEz1MH5F2SHcPy3CU5WT6OdxIX5E4qs7+K8oFc9N7xRVcp36TprDnruwY+Nv7CZCXr46PzXs61Q/NnQihb0Sf0hC+k4az5/WtHp0QtZBCmtHtu0om10TbPjjGbp+IsNlmvB8dej4j9n/jEsf+DjTwsG1EkX4N/38ae7xSwGybIP7lIZsN1vkvNInmPFNXYNbGfOP+vmH1oWYMXlBfhr0Ms/1HRZAzMtByZlIGg3VdwikxfE0JLX5iSdv0KbXBGxrViMG8ABsAB/ejxuf9UOm78iJ7jzZI4JcKVNrUHHtoro1YKSzr/CfF7vnmv1LB3GkhLYAvwZZzBsWnjylr7ouvvxTC/bSaKC9pa05nmVWEL35l8SzN+FZRgQMSEFuHqttBD/SpVNWdXRANpg82gSHtHhsifIVvUqJDOTtHLao5OVdLQtQjoUSzx/VXSztQHlJsJBl0AsMv413Zl7EXTxrBYkpE1gAL1ZlmVFtjvdNnpF+KsDb6IfAtYTTTz/1PYA0BpO3drGTgroGhw0LhZFtnJEyUJRhE79E1fbWP2nKdLSEdCR29uGodPmVe/651DsYZWtVxlCVmECfW/9Cf6YGtlW2vhjYML4p0pmHy+g6pVJ37HXpUPhyqCq61U6n1uy8HaPvKH28DarKqdky0Cn9k3CW9Lo4h11dAZr21lVZdfIMq92061LbPd1dDk2LTNE23pvqed/x/kL/5Z/tFLK9hJM8M7RD8z/UYjzj1ecf7zi/OMV5x+vOP94xfnHq2j5q3a3D0G7JgU65opty0uwFDAWRcq/NABMetndWa5VAYD6cAmKATEoSv4VHZEXB5aGLeDcWHTumMTdkyhFyd9CkJsVVS3ZBgAa3SehfVpHNlEMLMNy2Mg1i/+ntVwuN42/IITlX0GoaZUt1XHcXUUhQaZ1KxCAZbgfJWrNvv9iZZWuQcFLUNY8/s4aoHD8TZTmmYurKAWxuXcAaFvcRFtR/egl0uz1b3j1WwuvwXq3/7HxKf2shbn/vEWsMYH+bP5dlGmcim8N0Jvvmm4iUhD/5bglN1ItsP7TWYLYmrP2MAx/6bxLZwoBYAs3FTcSEqUI1z+jnk57tJtfNk3W7VF4/nlg/ij/O3OxEyRx/vM0596vefxV3Mmfes9zlbUICVOU9190sQE0e1IrWxkCsAy340auBe+/EIR8Pl8oFAIDgrD81SF99EmzHNxtDntZ1A4nEf98/oi80NrZuV7fQPr8Zb9RzBWmG2He80/6tNTQN31BoJJ6RDeZFbjZ918jp9+5fvVqfeNog+lo4+vnz7cNHAph77/AUiWLWcB7+ova6+PCEGgmsPs/k/8mdfrJQqEQ8vkPTCWT+Hug2qOquHNUe/Bfu3yadf/Ll9vP0/mvX5/sj0fAQvMvagcCVvbxhA3QmXz8j6yZ97/kMsXG7eevo+i/rl9v4ufvfSt/vLRwbLSr1sZMkgTNqz/ncoViIA6Q37fy5AFYYfmXKh5xc7zef57IHugi9f8campxHCC/bzkPHwvPv6L5Rl8lNhTz2QSZZBkeCBOxFp1/QXHQSOcF/2Eh+Zc0f/mB8q9oet8JA9NXnkuOQsx/FUeOCZt/LF+FAfs/6gCpVS8mmm4pNEmaxh8/AHce/+L4QGxO/dkFbLL2V/NmvaxEToBN5C8coGHXxuvZ/IWdiycv0UAstyj/sld+k6uss2PSOGDvJnAG/slN4Pnn2O9f5K83frscf/75GP89dMzV8enNjWcEyj//YmL/Ew+7SOFB0h3YJREA8kgkbBE9yh++LLq6Pcw5/PMH6ZNXG5fsnbn8nef/vzn+5TRH/6oT888LUx4/LxvAE2uKbVKR0/A7ejIrQKmrLzeFlTzx+6NL339aLMwfH/vm+Pbw5rBQWM2/OPlp2ifJHn63BGo7RlmGp+HFpKvblZNXR6N/5xKGPz3h+NfTleup9LHK3aFV63UDBegO2jfsJjD3+3Q54b+MQvPH54z9i8+Y1AllziRWPufqW/hzfT9x/vGK849XnH+84vzjFecfrzj/eMX5xyvOP17tNoK15SB/IX/N/2XzYfX8uHGYm8xfODg5ivvrJUC7x74Y8PgL+Z0j7vyRaPe46MSAwx/7PqcfmdwYoPy570cuFgOYv3DA6ccgEgNFgft+bNo93ipw349Te8ecPhcXFxcXFxcXFxcXFxcXFxcXF1d0+j9odb8lTmOD/QAAAABJRU5ErkJggg==;" vertex="1" parent="1">
          <mxGeometry x="69" y="285" width="95.75" height="33" as="geometry" />
        </mxCell>
        <mxCell id="Vt1mPxma9DSWi93VX6_u-2" value="" style="shape=image;verticalLabelPosition=bottom;labelBackgroundColor=#ffffff;verticalAlign=top;aspect=fixed;imageAspect=0;image=data:image/png,iVBORw0KGgoAAAANSUhEUgAAAUoAAACZCAMAAAB+KoMCAAABLFBMVEX////1hDWdUCUgHB0AAABrOxmYTSTTcC/wgTT5hTD6hjUcGBnGZy2cTyP2gCubTiXlgT6gViyvWyipVyf7zbLo2tKiVCXX19e2trbGxsZZWVkqKioLCwsPBwn09PTr6+tQTk75to+bmpoYEBL6u5doaGiSkpLg4OA4NTb5wJ+cTBz4sYciIiL++PPKmoK6urrxikLex7zKoo1EQUK5g2j5mFWFhIR6eHlmMQDMqZmdShRvQSCpqKg6OjqkpKSvclD6oGbgy8G/jHL6yq1JRkedWjNwPhWvmo6egW3OwLeta0aaRQf5o2v6fiH849RycHCHUCy9cDp+RyHZgUV5TCxhNRazbD2dXzKOUCmPVjPBsKaPbFWEWz+XeGWqkH54TjPhqIvSbCT97uTUj2Wo+UskAAAOv0lEQVR4nO2dC3vaRhaGRZDjgGpip7WFhHUJihChUOziQtcG1m6I07SJycVNnF6Stvv//8PO5YwYCQkEEokF+vZ5thZCI/TqOzNnzoggCHHUOv7vD9+0YjWRiej45HQnVzrPYMYUcuRp487de7li6SiDGUfIkY2dOxhlDsHMwnxZIUc2MEhAiWAWMmcuJezIO1SAMnPmMkKOPKCO9KDEzsxgLiIy2LggPSgzZy6i1gXvyCmUmTOjCoE89YKcQpnLFV5mMOfq4uTADzIAJXbm+Tdf+rPeZiFH/joNMhAlceaTzJkhwo6c5hiGEsEsnD/50p/5Nqp1/EugI2egxM48ypzp1/FJI9iRM1Hi1CjrM3n588gFUGajuUdQtFgSZeZMpnmOjIASOTObAXmKFjFQZtPJ1sVJY54jI6LEqdEGw4zkyMgoN9eZrcApYiyUyJnFzYOJQM4dbJZAuYED0AKOXBAlmU5uDMywokVCKDcoad9fzJFLoNyMEtzijlwKZS5XWndnhpbREkeJ+8wXa+vM5Ry5NMo1dubFT0s5MgZKnLSvnzODFr8+A8o1zDONn2KAjIUSwzy/+tLXn6D2T2OAjIkS9ZnrtAK0f/AlURbWqb/MUCamDGViylAmpgxlYspQJqYMZWLKUCamDGViylAmpjShNBwZyTHC9xs6t2UEvFF3aBsLndbb7tRJHdiZHpTtrlnRRFGsqFWOhFIdDodVGe/vmR1zXIbXyz11pHbL3iac6niQR01YnR63R+9X/eJOUO6qo8HIJqdgkvtYBjmN2enYVT1NKJW6pVlSHklCf9SYSwxT1DRNVAVD1dB+S9Pq+AplE7ZUjoDRy2saaSIvadpIcQHjJjwSxy7IOm5Iwue03ab0vGZZmtgVDBs1iHfWlfSgrGlWfiJJVHWGErOxTF3VYJ9mGoJTcbcqbpQ7pihxbVha20WZ90mzgVmNO0STGHyd3FOtK9jsSMuS04Ky6qGAJPYYSozYUrva5JJ7E65oixnMqFveJiRJDkNpAcqe5jkg32YoScvd8uRADd3bVKBU8jS0cVdpwWUpHEpp5PFUjSMgNQGYTV+0UBMQ5ZrKUPruE+Pfp6hQbwAn1RwOpaWq3M3R5DgodwjKItKqUdLPLFVqstMfWcCLQ0mv070wid8Sy/zd0NSyI3ebwJIGv1GBtzabnmOcOnmbNeh1VTh6zKHMNwllid2/JVGiY/b2nt58eHX94d3r7d2jXG45ntFQ6sQdUp34Sx/QC6S9pYtSG/Vsy3UX2YI/u6QN6lRgUQaUELCOAoJjNNp2l5zWMjFwhe6xFA4leuOg263Qtix1UZT0zXtPEcStsy2s37a2zt7cvH/9dhme0VCWRQxJHNItGnZSx4PSqhmC3obLyosoO9HbNKIpPX2Ehlp0EGQ59HZofe95FHq8VKH3DLoJZepWMJSajSjL0Pl0FkC5QxjefLi5vt6a0m9I10+JQxeJ+GgoZdWsoz4OxmKZfvQ6j9Ki3R4MPmDEMdmiQ4heUzsVUexCi9R+WtVzGr1i8V0CvWXQMuog6D6dR0k+QpWetB4FJXMiiuc3Z+DFYP2Gdt88fbe9S3rQCEAj9pW6gScpDCzxjhcl9JyKyIUhGvYnKMmcRVZYZkQp+1DWRPAa3aTDtwapgkONTDADSmgZIDcjoNzbu/vhxo3nCEIG3bp+/+D19tHcMWmJObiuNKddKcJ4zneqAs1VrPF0E7oa4MoyBcQ6AdYydCvskN4EpUi7WpmOTvkwlDv4fzt7T1Gn+GYBijzPs61XqAvd3s0VwoEuhlJvV7u2ShMfH0rIUijKkROOUu7XerZKx2wPSr3uCW9BBhuyRH486UkAJeSlzmyUe3h8fnV9tgTDKYeevXr/4O3uvVwQ0OgodaXbRBkhmrFJQSgNDiUdcxFKzYfSKZsibSM/jXLs6WdR3NKMSWRTHBrvaF7FUDLzB6NETjyI4cRwnsih7w9e7+76eUZGqagssQYFojS8KL2u1KsVyO+ZeJRt+pLVYd2pQk8nsi6aDmkk/Oei3KOZ4ll8K4YTffPh3Ve7nEOjohyySY7GiM5AKQWiNNgU3G2CR2lA1u6akGWSfpSDGSgbO6hPRCPLKxzPq6Lo4Yki/vVrlNYjnBEfdOlDTUjs1MpKdSmUOkwcNa3Xbyum5EMJ4e1mSxOUjG0ElL+geL68/BHpcuUcmcjZbvbevf0hkisNEbJgcllBeeV8lJD9aTWyzz+Cw+htqZNqMUskfShnBLhg7O8/f/77788+/vXHn9fXFCq+0ssEyV66zf54eXb95x9/fXz27Pfnz2XZiPRUIFxFnQ7M8jKuNGASDa7zpehOxdcxCix9dQf0CMMOJx2Jgn328WcE9tMnFPIAYWGul+yGnF1/+oTg/fwRw7vYN/BZovCbyBh5wlGxlkDJZpswcfS5klWNatxZnQ5Fyd4DyRBOy+ej9KllIK4XGCwlyzs22HrubmS8P37GzkP09vedaN4LlQyWAQxtSqWyEErbM3UROp6b06ckUQciO5PbzOXkwiRF7y6D0iNsWMMBx4JhAR7uCqj1XOctYb0Zgukgm4PDRFtcCKU5ASG4wQubLLzzlXp9YNpsYYeeh83B2cQRd53xUPqlu45F8JDzZizJxRZDST85K9jQTmxBlJAYwRgECajtVorxOo0limpZd0/LgNE6k0SAJYvyc0phgy/ZqsIqALVLVJRQPB4QxxkdlljiWaHe9BfRLc3GLPN8L2Bztk4vSghHqYku3JgsNpBrjIqyx4qXiJHcYW1IlsEyAo8ksiIGXSjmrdc81efUomTlXalp90wtnwcTSXg9ISrKNnhZM3s2LkuyGnE3ECWt9xp07UNqjnuwigMZfHpRsuUqsgKOp8n0ukgURkWpw5JQHlbT67Du1mYoURcpNZsWW4ajkwFRmpyW3Af6eVKMUmhyS4haRRljRiKO1eiznTJXDZHEMVl7sPJ46JLJzN4eKvgJGGVokzk6Kx7z3ajGstI0o5w8DWBpqoNyPE2yPCuOXpQjD0ooig8ly70ZqJdtW5JFWThWpafwZ1N6FQumPe3KZHTX2GMMwSillRJITkbXwoVGUeyQPMWoT4rbIhG9Sp1umHSrTbfcAiR+K2pCGxMEQ7EDvBT+cSAi2UUr99ABloVOXSm7+Z5eIQ0PoNxeJ1vNhC95hVKGtWqZPRalu89H6TgsZVaFMMgWu2YZL8jKk4zXKFdrQ8V93ChaKmz0e7Y97npwG56T6p6TZsp0m2T8h+gx1fegR6C/2Qvf//3Q1d/fcfqW18MAPfLrMa/1+rooVuNeiehBg+i0BPqnwfRPydVXDU6lWHq5fg9Q7+2SVat7D+7jVZ77X8PzacXt+7Dwc3fbXd0qfnWXW5vMnkV3FRPl/QylqwxlYsoCPDFlrkxMGcrElAV4YspcmZhuPUq9XfapT0oLxuRPj5w+3sHKHYp7VFue9fW6JHTrA1yWRL9I2Uwhf9pTdHrkdfZMhckfV7Hb/ncnqVvvSrkyhZJUfZVD/Oeh/4ufxsiDUvUdOgj9rml8pRyl6PtCKJg1FCWr165C6UDZG3KiX4IFlCPf27vTKDt9fFTX7gQekJzSgVKZfh1Qir7O8nAapc32DZtBPk5MqUfp/RqTLM5ASaNfjYNrllKPsud5tTsTpWDjcXw6gUpGqUZ56B9H8ALk4WE4SmLLgMYSUapRmv59+MWRGY6SJKmrSi5TjVLFAct/xamPt3vhKJ36VO+anG7/bGcGyhEJWO7FATbdLJSDFQ7hqXblwPDuNAhZOwvwYM1CWTGqnjG8SsCp6Rx2vmyAVwzMxnTn1Ricos9AiTfrq5o6psOVtfZE7KEphFIyCDeFe+vA0MNH8P50Ipqg0oGSF4zYJK80SE7Ovm5TJqCMUJQ1Uq9bVYaekgDnBa4isx1HcND/s0cbbTKmkDIbj9JUsJmHY1rOqAWdJBGlz5VelEKT/keApyt9Cc9Uka23ukp6OlzJFdmq0DMylDXXaWUazCQND0Eprc6TaXFlWDnDobUg+mgzjEBOJRxltiAxCyUew8m/YoEfZMb/TOAUyg51M0ZZnW4nOaUjwGegJBGOn0zH8Y0X0Jxm8Ag+XmVOiZV6V5IINwVaqsQEw1CSp/xXVcrASj9KsgZhCEYevqUQhpL2m4lAC1b6A5xEeJ+Yk0ALRdlf8cCzBq4kYzjJz+lXmsJQCpI72K9Ea4DSUPGCzQBXN/BmOEoyiK+qLrQWAU4iXM2z742FoyRpkhkbWZjWwJXuii3tB8NR0ueJVpYPrYMryTwcxTftBmegdLg5fPJKhyurCq/Jgy6AskZQQvVtBkryYNuGr4Mf8qLMeJQ0wtm/zT0DpbLK2WM6AtyrKZSklg7xPRMlqbD7HzNKSvuNL+nKUgSU+SmUhI3CDyE1cfK9b5l/OsP0ohSGK7Ql/XVRL8o7e0efBWWh9GL+10WNas0v+q+Woz+6bIEMb8j8AWyjj/72zLu76IVhUvB8Ir95u7dbzJVKpeKDO4CyGBFljABfu9+8xbr46eBe4ejFo2+uThoLolzalev4S8xYrYvHV/8ih7QWRrmkK9f298FdLY5yKVeu86/WM30WlOvvSKzWCf2J6xUGeKF4vvaOJNqnv2DPUBb+SdiVhY1wJOji5KCxQ/LKUiF3/r+dJFEWCuebA1LAo/nJ6ddHpdLRt0+uWsenyQX4WuaRc4Rgnj+8IledHMpCcfNAejQXZcQA30RH+jQXZaSfeSsUNh5kMigLpc0abEJ0/OtOTJRZaIP2T0ieyaMslhZAWSxtSEIeQa1jmrQzlKWXR4++a0REuVEJeRThpJ2iRMPHwytB+P40Esp1LaPFUev4l18b24US6vX+xduRUBZeHj3JHBmgi5O3Lx7/CxsRUOIp4hf9wLdY+tXEYnNRZn1kVM1BWcwcGVkzUWZ55CKagbK46UWLBRWKspg5ckH9B2ZAPpRZ0WJxtY7RdNKPMnPkckLTyQbMze/BqH2UgVxWx7TQQVAWszJaLJFCB0ZZLGWOjC3kzJ1cVkZLRMiZ2WDD9H/VbtjiZpaLZgAAAABJRU5ErkJggg==;" vertex="1" parent="1">
          <mxGeometry x="249" y="293" width="112.16" height="52" as="geometry" />
        </mxCell>
        <mxCell id="Vt1mPxma9DSWi93VX6_u-3" value="" style="shape=image;verticalLabelPosition=bottom;labelBackgroundColor=#ffffff;verticalAlign=top;aspect=fixed;imageAspect=0;image=data:image/png,iVBORw0KGgoAAAANSUhEUgAAASsAAACoCAMAAACPKThEAAABIFBMVEX///8fGhcAAAD///4eGRb9///kcyf///z//f/mcicfGxj///rzyK4fGRb6//8gGhbdZxfffET/8eXicyrlcyTmcSoVDwvmcCMbFhPrnXkKAACrqanociLidCbpcSf///fpnW09OzrX1db/+eqcmZn29vbe3t7/+fDu7O3trIb/8+TwwqLgdC7iayXkZiT74cbppXboZxHZZxyBgIC7ubePjYvqsZJ3dnRaV1f+69rGxMMwKirPz81nZWS2tbX738334LvTbzfYYQDcjV3UZCHYf1Dx0rradjPdmm/eiUnrsoj2yqvwvKTYaAnaeED2vpfxoGPZgVPgkVvonoXiWQDfqX9KSEXnwKvZfDvsiUPz2s/fkGthXFy1sK/eg1rTdULMHbPqAAAX6klEQVR4nO1dCVfbSrJuS2qtWG6szTGSzOYNm0VmNZsnNhgSsrzw5jGZueTm//+LV9UtGxtCwpxjwp1B37mXA1bblj7X8lV1ySEkQ4YMGTJkyJAhQ4YMGTJkyJAhQ4YMGTJkyJAhQ4YMf11QWYYfBH9oMtXg75c+o78wLI1aa61mc1ixNLuiU0176TP6ywLIoX97yxjrD4p2hYKJZXgMmk16Z2GoOiE7L2o2zazqcch2fZB4nhpFBntTsXUiZ5b1GHQy7EeeE7mqY3SGmp7Z1U+gbTEvcgPPMNTgvE6tqYMjG9Mya0OszKue4RhxaDjqxp6lk0nRoGmajDRpWsYVoNsOAzVWo7YXRbHTo1NcyTLKLxvSo2xlwosMGVhUbISO6qpBMqjrkwcphcxoERmkl51ZFmmxwGlH3nroeoZqfGxNHZRBfyFHsqZldkXkrQ3V8dz2Vsf1XKMdvu1OHgWirLVea2vxzVyd6I+9xmsAWkrl64YXBeFF988Nx41dN7mswAGsdJCnYq91eQGiPmSdd11K6Kv1Q9kiurzWWY+jaONdpXfmRuuuY7A5iFAQpSorvavFT2eMBbHrOaHTf091+/VW1qA76SbzjMjYaGqVZqK2VScK3q7Rykr36nK+w5hhGCBSIzWO22xQR2N76XN+GYA6AJ/6wAzXifsfKF35HqNqcPvv5y6/ot+FhhcGhuMYXhR67aRZ0dJI//pAUTjJTeQq+DjUCR1uRG7sRerGBotByQNLquc5nhGsR27k9oegH+RXWgJRbO9VBoEROKHa1TW9ctmJQ8eJwtjzPKTNcUHSA4A/l13WIbS/Uqp46WIXP62rsRNeQDGj0W57I2oDRarhGiC2VHWdqYEbRVHgYRSDutr69ev+l4FySWDLxLJ7rqfG7eDa0qlN6GcI9AGQBRreC1iHzTf/Z92IVNWLLzZf+qRfCpYlI1+2RYcdCNwOe08JVMe6NWBB5LhhsrHO5rda3frmRbwRgoVtDF9rPUhtTZMtlOTDa2ZAZOoPbYjatEI3ozBk7Oz7m1avDtJz8yxse6EHx8FdX2cGhNCEmnxusQ1CFMJS3OlB1NY0nZK9s/nF1mZdk2XgpvspcBzwULZnA4+vkyui1Xt7151+4MWBEXlOML9GkCtq25XuiobNUnBPuvYliSEnRv2mZcuvSi1oaCnYstOKw+ZXlgRO5Hqx47hOm12vwBGwK92SgTCtUtFAbq0MPgbtyFD7/6vhn68pXkEo13Xb6l4tQjEcGKrjeCpqpzAK//5/k0ZDUT8QWv+DxWrgGcl1/cXO+aUA5qJVhpdtxri+NIIoAqUZBOzs3efi5ELNAtMiWpPFseN5nXcr1mtyPwTkfFq87ARQunhoVaoB2uBjv339oVsn0z12Sisy1ImhY4BK/VoE732xs34ZgEYofkkC14UIBb4XBMHGxvzlsIjSwZ5iAxUFuWKqgUrrbZe8qqjOIVPtfQJJzQ0D1/FAQ82/31zBLQdg8V73AJgbdkLQ8457MXyNWzhQGl+vR7ELQcoJncVW1+IbWlhAU/3eSrLZiT3VjYKzK8uy6avrHcvUOg+cQAX/i1zn+qpIdN5j0TWb3Oeq/j3xDDdoJ58tYqHweqFzfinYFfKGtVWnDXUx+GDne3NzBYtC3MvSpuOVbr356LhuvLHxHmvG19cLBVY2O2EYY58ziA0jTti7910smHUiTxmWrVvddui1Iyds96j96hQDQdlEWp0whojlGKqrqo4Rss7i1YqlE6syaVcVm5C9xF2PIzcZWGBZL3bKLwZq2dbV204cRp4HnuiGYGEOS95+sEDPT620dVL8BKx6kdEZwp+zPQ36sF9IZT56KUNMeJq/88kBQhrHC9vbu9+WqzM9Q9yzscGCus2LPrAQhgE20r2YXeyt2eNZBSqGGWRi6VcMfFB144FFZtiMQU5o780ktt63ht0Vy9JkXdbkpzYzgCt558SXBJZ2GzM7xTtQrduax7rZMVyonPuXXUL02ugoxniI9BXQpyvnIMOMyGNzOHM7q7eHl9foXJ9NImGsPZgrapaG5v3kzs/hjVQumYBcTvEl83BWpzgB2yZrw8WzJIwiL5mfA1Zqt/ujg1gy831U27aGLHahuI7Pi9bsxChyJc91IoSKgIIzhk8tSb7PQWkFBv7E96ruSn4hx1EoFJSCLy3M6hzHgI8OjKfSa16wjc57KJn1VenubVBvgUzH4plWBkyNDNdjLW12WlTjXK17d4hQ8KlRlCTNOnxKT2z8VG+lQiE/5qpQMJXZkwWfHdV13baLHy43IcgeLkkl6c5+NYurKe4IvTPPjV0n/ro2Q66wTphjLkDFH7hHBBkGko0bdLZWNPtp84PVA8nM3UNJOp7ZaQrgDh8Odsi2DbKpsS35plJeHh0Foqx/7A3rFvJlXTKoc5yYNWe30QWZTgauPO5+hmE4BtRbXhB5AeSZTgtc1KLpeeLeifhdTicD8BOUMaCSfclUcvlcIZ/3SwrwlM8X8qZvzj7AU1RTOvxHTk3JNAulo7v3OD0lrf7Hr4tXvTohm+0NNQq94KyLzjObgVGN2xWwpKpByAN7AuUpbkUaRnBRtOzR20AdCpFTnDAGMmHzOt8pOJS4JZm+5B+Zkp9T8oCSdPKQq5kF2hoYFbi7vzR+5Bicvtf3PJaczS8Oi00WRoEXJZcVaumzCfATXEUXi2/eLF6/u8CWBpIVJnsW1FdioVWxR3dwUFu2LAs40qnY+L7xOVf+0UKDVCEf4h9l/9vDd3uqXPs1DiVMuIXyweiBY0naJz0nhuI6BE1/9s8ICh2oC882ZZvKMxEOE1yF810LUkm9u/fW5Vyp64MKCCxwU/gJVkXTASZQE9wlsb7A2H8sKTxAmULryOiR0kHt4Zs9gSj6RDpPRYCURpJh2ff9perafKC22xBw4yQIXA8qIie5hMQ4W65wo22+yMdRCR2eBfiAF7e7dy0NWtFGl8H1MR6RKcQOsivxDCitpiurN5K0O/vWrTzZfllIuUrfswbRsVRqVAaG44Gy55PJRmBETjvAq5rNTN8EV8HXItY2EJWsvfSRpPevy0WBOc2Wyaia6MGjl1uLi3/8Cx86KHNlJe2MXnT56PjB2TVq33b39/d3TxuPF0DV2s7u9v7+9kLtkTVVAXjTbc5VgUsGkKRHvmnmIfE2k9AFwQOy3sFdsShcj6I1QmczeZVyhYMl4dc1gre4gGX1HCxOVYPNFTssQDHfv67YcjqVI1vNfpLAw8lZF2ubJaFC/QPcx+SONqH3RZV0uG1i7VPmBdCqiPl3p0/5HVq13SVphKPdKRfmr9FY2L9ZQpzAHwcY2nOKtIzPbCyVsWAAI5s7Y2GIwzJqpMYRZMLY/bpCtdnaFebB+SLl5yXLxfkQm/sxa1mLTI3xYLtLZeGQVKt/j9VQNbxgYKFb3CBXELIgEekPz4py0Sj5QqmCmoBsuaqTqeoJfl2+Ha8p5CCJSvvVO5+D49XdslT2ERijqks8nZT8Grw++LyZE1xVuh8WL/oMxTUWz+sQr5oVqs0mpUzYVcoV3uRZPw8MsGW135KHnRi5MtgVQWHD0evE8IgT96/48n2J21Vekb6RHwTw2gHkdzMtgJANpSQt3Yv81W0JEkTBzCmpklUKWFLeBajakaTgUUXhMarh84UQznl4zKOgg8cp9vaKw615p5/ERtx2kuRr19Zle9Z5UHDFp5vq84GBt7gkLVJ/G/M9AXYtyyOZspcYoFydoNPlZfw3jO0Kl+o7D9/h1OfpPSfIElyY5aMpso6XMJUqSn7MVU4BtbYzJqtmls18WkNh8VQT6aTM3VEqIFfSLrqExlN0ZbP1x1uWfPx49sca5J8ZdbHuc0UpVsvdiwAjlpfMEfKmYxiRarjttVTD0/oXhpZmuIugT2F1wyzxa1TMyfIsxapUmqx8OG3gieUJwU12yv6IxgL/hf9q3lVJVQhIuTFX8B47Qv1K24TwSjSfQ6oI1xwynzjWisPPzVYPTs+SZ69FhV3JIKOsIQvbUPB4bCjTXsdDJ1TZHLW439Nux3EjiFadOWJz3b4qiatTHlrWrgT2UChA+SN6WzwkczO4Ga85BTqh3Oa9HJ4BSnlB67hK2pXwOeKZit/AT0BwtUtOhNWiY4oiwsIPG1sOFo7OgFNa9rNwhW9W0ey1QRB72J6BgE7q57EH2tRjTVlUhaTFHAOUatBeIzrvQ0DpjFeRz5kTZHHlijIID+Sl8sHq4eHh7g2UQEhVzpRO04XHQBXyWShLS9s7h4cLJ6bwMBPthmdAqcRfxueJ1IQYtZ1ytYPaweSkyTpWt5jyIDBwV0QBBIJZg4A143jlrH+vgxIFKVLfYk4cR5EXv8Mpkz0GAtjzwu9rVOYmPgi4+mKLFZreCVrz/QL/4JX8nRvCZ1zjDogXuV8ToUeG0ASrCmBDS+ICqqCN0L9K0u1xGp4a2xjIuSbghpXWm/7Rt2UEpJiTMmfTP0FWzULK6TPjjisjmV8DA67/62p+A4KRp7ph0sS01j2LUWsFnaEgpngR4HpwQTq+c/2Q28a0G1LM7IqI5MsT78ibEuBhKan7won8sZ3ha6ayPNXlu8iVki+PQpxcFRWomRPpEKyK/IYRj8l60Bn8+eXP8wsWug7OouA9QdiPtwbYC1Id1rRsiGV02OdjPfGnNXDYUaI6lSCLmWnjaodfrwxXzK9IWmpMqin5oGzyh7cxzS2DCSk50/eXpxTXPn+q4vOotl/GeFi+FfIN/mscTSQMU9r9PZvLEz7YXg+hkgqhPudNGU/t7BHIfBif8G7GdvClbmMTa6uPSdBgl5ZupVzJyItwG7gqvG7kCrwLL8UXKe+OB6Anz3U+PvkAeSgoaGSTirEhdGmpBNpCP/BH1pNW1rWycscV1gu/ZXBoQotCSHIiCOgqTs1BdbD+rgiKF9gqtgMPpKmx3iMaaPpPfK7A6Awnun88jIvzh1hUvuH1nDArZTo14hNuy6hJeZYTvJkYmycXUchvwgnB3MCKlFRXpZSnASxVYsDzb5mdnfBBw3GhRldBkkNB1Y7Zp004itPR2iLzPDdQ2XtsMA47EOpBiPKuxGTnYQGzFUZyfumcEqSB68VpLHDxmpfGyb909KBY/iaNxVQNPwVTSeObLI8PKkKJ+eYP+j/PgAmuIIBDhR7xXnIc9s979mjJXMfld/W/Q/3S/OgBUyAhtPuDFaecLOBKUdB1GoK7u5g9xk5qcDWiQ5AWKf8+jiVRYx7irwUeBkWCwNgkJENBER3rgnSgk9nIgp9iUl9h4dd2jDgOAnaxVx9/vYENpTTe5RJcdIleP8fZViMGmcpvipl8sW8oEfL87FfxEnkrwH/YSRZcleBIo6RgFnwg93VwTh77ULofCq5SYYpcQZBDq/IXymBauTza8W+I7pM95LCD+6h91rkY7EGoSre7cPOhyTAvxp0WQQWBXdNwvs77fdOnOIpZOeztQt4H3kpLD69CuBAWvstQ9kJJXH7IJzqewpsuqZ+OWuv4lkIyKH5tFQQHGvLD2uoZMMHVevtNc7G51WwNu3WsEuxxxUl7Zy62ztjAIp87caS6Dtsj5Adzq7tp0PWP9NRR/Jv7a1IX4oHsUOJi/we2B3ZlKmKfRvQxRi8EXFWFZMCDBzxNjI3uWTHBVfxujVijzUh+f5BYQrFadtXIdcKLovYlidtu6HR6Mnkw7kCJfsTjD+fqRGS7h3ZVLZdGOnOH21Wp/DA4H6ZM62l/zBy11oGrmqSMLK2G/RgsLw+ePxNO9pDnsYfMv1hExjpqNMIrE4u0+pFjRAEbruEstOuFX+pyujcIJjBxmrs8SOX9JZ2AKoKC+Af+hVoCOwMNGe0qz+s60X0Z2SkVfgpS7WTU1zNHrXV41+O0I3NLeEMIucKQpc9wT+1HuMfVj5bo1NKLHdDyrsH2en0VtJaX7MkkPbPjW2nCKvj+imJKJ6iKzALWyAuTV4BFoskzAIQ0jZtFTmzHIFny3SruzajtSU3BAF4YhSTKrRGsV8GD2L7iXZxR6/0Z8QSuCLWINUhcJzbc5mfQ8CApwAXF2toJ1P7b4yuEUMSrQiCo5mOnBWQ7hPCJAofv5ytCOWHk8cX65fQoPyeZVtGDkfOF0ZbaaAnSsSrlsUjgbVhIpVya5J5jm3sav+aKYj+UzrGwDc53fQ2a1DCSgWj7IVOoEtNtG7QT3nuCDIWOohS4bUyJ0cYNUIUXesCdfD9tIYiSkfLoSLTtZYKOB1wdo6mi0CopKRW8aS24QkvSwcpwkAnkxe0zS6wn2BUEMI0Wv4ftwHH/eRGpEd7lz81qXypjJ6aAwlnGpLgMZpIvFEyUDHCJOe6POdysl3kcJNrOkaincVcBs/+OkFFmeaIDv3xgEsJTnYnuvTBWGBzwxks++mBhZGlpp8L8gaL97VzhWCFpJo6Lty7iML7R71qCKz5AhA3MhVq1sbyNvWDkCs1hlX/cKExz0tFCDXjRajs3ojFqcudCu+L1NVx3zi/v8tHJxvGJJC2JzQeF96+wKQpc3ZIRV7JZQrsa7XOThokdMFz9vCrrQR58CJnvofbWVdX1PMODupH9aXGdDMq8UIAchE0r6Qj+V8yCglRh640HHKSS9/GkpYMDvvOFsTyv8J4BL0swTis53jqVjg5ub3ywVUhwWOLkCz7WiQe+CV473o2npAqVDbzs2NJwuAFeV/Sc5R/Jvtlz9fXHXAmsnIeGGP1TDfYBRyfhwRskK92gKaUtJfA5bDPIqK3TFjmPYAAlJxqCPL2Nctb+Xc+gBGtKmPJ2uWQoFPj2LORTc8rBUKYCV+WRpck4JYAluykdpA88K1fu43aVvv1eEkd8JkQNz7qa+CKbZamUUiXaMWKuAeM0kbGRkr97VBAqKBlPPiCqNxLa1eSsGzjoKucKOUXlak6V4LxEgoPjUVEZJJjJg8HUK88aT+WK0i4TXBkGG2h22riCS7rb/4SwroDEvOEJq6GIOqQMcUThneSULFMqTYcV3AstKModmRjuIF4jHauozHO4ESvdtaHxTc2JWROSfmhAVgGe+mzZ8AnxioPq2vU67ucYRsDmINinS7dFsB6ZlQliS0SR4zR7naTRPHVQ3Hy/r4P0bUnK3e2igt3VUPQjV994pkRJMCF4QcMVzHG/XmBVzIIUnrMwfCpXoGNarB0iV3G7iK0rMdtAvpUkH1ubBcxlknQw2v4UfZfyrQa5T+J9pkIJjvv7eM2TZSRG+OWTdA2ErLIknVSr6QwIz6diY/GuG3iTHpwsIqujB6WD6nOpdwtK5HS+Pfm09pNvFNbt7lucX4P6ZqDx7Tf+MCWN1fFpLm1POQpYGsYUeXn35ggPm0v7h/dHZEa3XNRWD/ia0tLJAqypLggAQcfit4mO4al4ZHWql1pLn7Gw+mxNUku2tV6TY2uvTh8dQoUjK+8Cz1Adrz/HH5hYWTvcOT3dOZw6STEgNcpejdry8XLj5/PTVVxTe3TN7+io/wx8d0G2oIqBT7ei4fD4IyttW+9eBJ4atYOL4iNrpnCLG1um9IOh0UfwV7+BFLmS+Q4DxelH3HV+bKUMJSFvMbA/fvhC9wY9qyYP6Tx7pQcfrHnCy/yVQMfD6jhMX/lJ01pfud5wVSMU282E/KLBXeXNhLz0YH/mPxf825GwOpbxNinLevT7tCid63t4hxW4IO+G/mKrt8G5Kvn/RVwh7hps2AiYOIB3Fmp8lt3S5O730IvxS+W37KlnPYJD3q70b37DVtRfAji8oNEK/mr1ztcNx4lUrzN8UhRe5fsJIBleCVf8OyTkfzRbw9ZiOzAcvMtsY7DyJK5Az+MY7O7r4YrYRLvssw4Lw4B/xWL4997TZuS2j3C6+mjnxWXR7wLeXEK2WBwGOAMdu1GbNfH+/ye/gPzyEvK3QbOAq4R/05saxU6UDFZ03fp3Lh8TxqtwQ/y3eegW32kNQycOP54X/+2xgddiV/zbvcEH8d5ep836l6/4C5h/AbwbTidNiO0A1hkMLZz0fYVfKfUU4D9uQbs9js1eXfzTYvdnYzJwAFO2nVY98Bt+q8vr+063pwGjlc5vXIdy0eLfr/hwNiaDwCQpFL/fM2MpQ4YMGTJkyJAhQ4YMGTJkyJAhQ4YMGTJkyJAhQ4YMGTJkyJAhQ4YMGTJkyJAhQ4YMGTJkyJAhQ4YMGTJkyPCfhf8Hf+lMqReX+4AAAAAASUVORK5CYII=;" vertex="1" parent="1">
          <mxGeometry x="277" y="256" width="51.61" height="29" as="geometry" />
        </mxCell>
        <mxCell id="Vt1mPxma9DSWi93VX6_u-4" value="" style="shape=image;verticalLabelPosition=bottom;labelBackgroundColor=#ffffff;verticalAlign=top;aspect=fixed;imageAspect=0;image=data:image/png,iVBORw0KGgoAAAANSUhEUgAAARIAAAC4CAMAAAAYGZMtAAABO1BMVEX///83NTW75vvT7/wSh7E0MjIxLy+/vr63tra6ubkqKCgfHBwuLCz7+/sAhK+5uLgjICAAfavw8PAmJCQAAAAbGBj29vaNqLW/6//t7e0XExPn5+fv7+8faoXEw8OCgYGtrKzc3NxxcHCfnp7Q0NBSUFCTkpJ9fHxGRETLy8s8OjqnpqZvbm6bmpo4MS7C7/9bWlphYGBNS0ucrrbc9f+LiooqIBwvkbfc6vFSn8Dj7/S81+TM7Pw0PkMbc5OZw9cAd6iMvNLp/f8xRk8uTlsmXXIdcI6RvtRysMuswcqFnqpldHtTXGGx0eAWf6WTsb9SSEMnGxYAWnhth5RHUlgaPkxWZGqTpayCkJYuTVt9iY9mn7dPcH8sHRTCz9Y3iakYAAAAa5IoNDlJXmkIR11ZlK0PLzwAESIRGh9zlFhmAAAgAElEQVR4nO19CXvaSLa25Fi7AIGQbJADEogdbCDGG0mIO+3EsYM9WTq9zO25M3Nn+n7//xd8tUqlhc2x08ncnDxPDEJL1VvnvOec2sRx3+W7fJfv8l2+ywLx/uwCPKzYm59Wf5CCfD2ypMWZnwoMJPXOw5XmaxB38U+OHH5mUJBH8RMLyx+R2bBIX1iCxibVcAbsr9HCj8OPlVL4sVjiouKsoJbKBuX78uIEn3r4T9thfo0axCikDHsSfPSLvfhNm+yXAJ4ACOmrJONAN4JyutgoBgZzVjXCtK1y+LkR/OIXG/Gb11itGfjkg0I/2Ak7+yqEIlFwyYcS1n6vPAzOcXifvaRVdIPPk0BJfE2Lt7k7Yb50KI6FNj008rmvUZp7+O+A1qctwv8zXTFo83qxxVyQGRlBnTi3SPnTt4wI9wDxigwBOUX6cztHL+5+VskfTIZYTewyMYCqgbS5pvOk0eWuaTDN7wu6FRBLrkj1wLfEuNnYRcYtZfgyAW+ikUNO8ev02HtGFf0dFPH3nqZP0B+e59WB5LZ0QxBC/1KoWoIeMIBraaSeFUtQ42YzZtwSNzQIeHJgde0x9zWK3TM1qB4FC1u6XObVOrR7Hopqqjr8K0rYAvyWBb6blDOrGD58mYG9Tcin/SKDUU01sBZ6ZZ1e/ZUqidMQ9Br4OxQ16HJ7Fs/rzR/+ZvBRMa3xaNTQDAiQ4eJL/bbKlzERDSxeraFPucBxT8rV8DETw8Rue0+ll+cY+v6qRAGVN/vSUOfF/nT+FkIhtK8MgY+LIIr4oIjr7vctgddxrWsGL44RFlWJ3rhniaHfrmsCYdK2zuMPTrmcFpM4Kce+rGS6sJ6iKcL/j45EXHs9AQiLzdvfBs2aacBzLWgmDtAWoQuNoNAIPJNc1pTgKW6Z17CRDHVNIg8mahUV90+G5IdHb56Jy2q/ABNd1fFlSElcTeAFAfqWiqHTGlXKej94jgT4CatTXxUJpY50LR77w3s1k8e+lPzwaH51/cw4ShrIJnI0/aEyBrYm8r0MV+hrlCag/9GDGgNExDEyopbJW9haJqYZD2KA1I3ksS8iPzy6/fDx3ZEqfh4eSAzIOkJDtgtNSxepc64A/xOEJOCLIKAotWXwOrYs1xJSorRq8c9IAjMQjqMj/R7QCEVotEaayvOUL4FH1gOiUIA7V134CSAiqEhbOgG3sNIv9xPHHlp+mF591O4ZDoyJCLmFaAD0yEKbmg2AhzebEIi+yfMa0h0PuOxWvHCFtirufSkksJy9+SAeqQvhEERdp2DtU3n28uXLZ8+edXkBflsFjIEaPtMH5KJSC6hDRKqAdO0hUCNMuSVVELrxLkxfFY1c5MgDdy6dvbk2U9UD1XVfePbyp0/VZnPUBd/5lz9eXFw8hkL+4M8/dhEoALoFJKReHYIATAQePMj/qiAtMFseTKXBYYGHDqkA/ppx0uiVhZhTftAcOfPm2jKTzha2+zNS/VdXuUp9pO4LLy8ev3q8QF5dvNwX+FZ90m/wahouRx+vdUi3ag3rgD0EtqK2fBiYwLNNGJLYwD+ZMV+b6WvAKUXMxn1AQLzfVENMgCE8+/HHUAWupMpgfLT/jFGKV1ASqABQ9IYiSU9+/uX6bRIXAT1IHOLoxIcKo7Y6XGEEc0gMRKErAvuJmo0HVEjQI3zbfLCQze61tUgoCg3l2a8XbDXff8hVeo2j/YvnNzc32e00AT/cPH+OELrgj+SBlHsC5effPnVp1MY8oosr17SgwlQ7mQEugtoHSbMDiFgcRyP5ATzRjHRRVh/KG/utMsunhCcitvD8H38FvqH5bv8CV/40wOR0ATjP/0suN6UnVH7+AGCJKEt3ZwtwSqWrQoWZ9CaGig7rQwCED+xK6Ebq67VNqEETVnFqvTUHkDYUeWwxCgLhuPjx+lWAxc1N/vjycnsOysn//usNrnF2dkw+vD5NV5jt7PnfDEP2Akx2dnaurschKvovuwfzn8ca+a6SMojjDorQALfKbCknUEUA+7CGMqo+hNkUBqoZNJ3AE2O5aGE0UG2zU3zqoCw8385e4mOzGUYif7YIkvz0/GZfLRw+ejp9QzHZub368JESiyjoSWcvthUuU9Mg3bAaIOtIhfQRO1DWbT1At71TLasBHro+7P5ItKP63zdBa5/hc+2//wq/nSJMsq/P8ujHU45Acnwch4R7vn1z1OAeQYGw7GC53bn+qC5KIsWxwlVE5Id7zKhPG3dC6COGWn1rdP89S14/sBhBVBu/PRm8hHA8B2iMZrTts+f09KssVos8PkpUgUCSn8aUJXta+Mf29qvf5cNHROaz2yuCytV1NzU2FoY5dwhNSey6gQbk2sS49JEUFr5XHN07tXqjMm0rUe1e/wxUu/34FXEl/zzJ06r9Ri+Yo0P5kxn4m73kXqMzOQxJ/nyaj0Eyd+EPF/sBJE+3drfmt1RXfnmbcEEwCdKRAoljmSDiTUzaTaWOpCBQLQzLfemew1avTwEBBjP6BTuF90GF/uUHdvCMXvI3bCqXXBb9D0HLzjAk2WPuMqYlee4T+nv0hkLyaAtIiEqqquDvQtv1uUzBk6t8GBqYLSkgF9fQatL9OhunZgWAdK8RHm+mh1dhhR4P5rSK/0MvuiJHoLoASDgAWt7GkORPuBiTZC/tf6EPF/1DFhIkM6IqOx/a6cmUoOq6qmlmCJmgNgMM/IZhVO8XEbta1umDPn7AeIASHz4Pa3SzzxFDyFN2df6dpweOsxCSGfofqkd+xoWGhv7LvzhzH+MDR4GW7AaYMKqymGpZ0duuQjDwR5auD+4XkbpBQwD17dXtzpMnU1Jklg3+8DBX5EE8wjXaw/G7C26WR7Qx46Z5CMZZHigHhAS4HcIswIIAQtnsbDrlGkSpfpqGZBLKLlWV26u3q0ERqxXMpSW3oYkAn3vlEUkwKSCfACA7t0GJ5ywkF1WkJrC2nPtuH4Tx26fcCdQBeOg0D/Xj+JjDkIAWO8YAnp8BRE5ReT1yu/dv0iBhVOX26tNKULqjnpJzq20NBFFqP3efvsZrEIcmIA3ZmW3tBnr9miXIm79z0A9DsrD/2H7+HBMrd5mHxMmdvYBQzWYIkhdTqDHIZk4gNHnSgm/w/Z7/nCQTqioBKG9X9VeJqmmq8CRRbCr3GI9kJoRVQ0C2ntLyHkZ9xk91DnsUbkK1BxrRPJ8FsQh3CSE5Q/Z8CRUGkjHUnHPw9x/0cfi6m8WQQPsJQFnca8WIYI5k+R5jVsVUCSAfISDzLch3ISTRyPz574AyQNjBlS5O8+QXyB1nx3kQvNlBAMedQ6U4zUIVwST7nhYZB8DZZZCE/gcS7UpQ9PZAUlbM4NpASiMaBHY/IECwLIJk+58D7hJyazN/eXKeJajA6p/nkzfPI3LJoJMek34fl0DyJM3lpIFSHy8HRRcmknyPRtPTsM2I+vVOCMjW1qNFkLx6V8gABOz3wI2ccdPLfDaL2ZabJuh+inwPie2z7+Bnb/IH8cpvVkKytYVC/SdSs7tw/FDQ+aqiyPeX+jpjg5LIDuSQrdWQbL9EfcJ14ni5zBwYUP489fY4V0YuK4u4pl1+d0T7Ef4WPCLucuKcoijShE8DBaRg46akyPfYzzogtKp3f7lFpJoGSTwkv/k7bBIccOWRYz17vf1ivvAh0Otk88dzG3U10Z4VQEBrQIK9j5zLSUpViHkfQTfbrR4ApHJ/4ZnTMImKAJu53Yqq72JItv8LXFt5Qdp6G5kGd7IYkuNsfvs1inX9P5i7rAkJBOUJwESRlElbFQUooqirqjCqupKUkyv3OHjTIwme2gAGO4/bc1DeR+fxxA3V/jJwwbPlj7kENAwxy3A2tRkkx4drQgKo3lEAKDlJqreGjUZj2K9NBgAOgIfcuT8/w9kjyiKTJxESSUAyi0MCW9wGDoZ+P10WRZ9h9ZmDc/7yirlL9nR9SLYAK+fkHKAUKgpgVFmuePcZv1dMnaiIK9+mlSKEZCtuOBARPgNTGyz5/HTF084g+9Yu2Jtkz0NIFnucABJg5hW33gO6oeSAcsiy0nHut1+kioaKgIpUpVzCZrCyhm0YhST7b3C9v98C/uT08vz8/PVsNp8vJ7gpRGTyU/Q2s0frQwIr7w8NVTW7/UHF973SfffAl8ZkHACk1pWz9FKEkBxGe0+zO+AOs4uau7YVn0MlGvwRuct2fhpCsgoRCImLmQ+6XWXlEzcWBbteQW1JIC9Y0EQMJNHAJPsE3OJy++J3A0YDayjvHHJP7yfgiGFUF9zmcCNIvCL1vLquCdLKh24mVQuHq926Ajz6AiVhMuEYv2ZdDuX8j/fLdeBIzudnaz/5bHqZxq6rIeG4EclL2/Vma6gXG/c5LFFoYKNRRzmUOi5ke6bE+QQkEKTn+0bDgclu9vJkjQefzEAOGICbPQ/vv9LhbHGeRgM0WQJ+x20V729SWgcPeQt6U8J9cguLERb5cDsBCQLp5uVRcQIYZTpboSj29PVpxGoAlWxtAMkuN6R9SQLf68gwHFFq95TW9LCnAbyaw3nBIruJkEkkfs33QB3zKGnJX/TXWXfWOc2+yMc9OWM3Kx3OYSdQEl4we1zBV1yP8+7F69RweGbWlBwZM1tsxyEkUcvJ12Hakt0+PZ+uzyKF+WWeRSV7uQmV/LDPZjdmG7QmQOU+4ta9NqIRURwoQSflkhZiLId1w/kBhOT09XR6cnKW2SBcmp6GoGxkNwdNlWdFKKOFS87nW46HO3f1Btslt6QkYaEjaU52Ag0HBa152PLH//2hOlmvdCeXedphf7g+JLvzo3ingG5N7sNqcohGYDCihLfLLCkKYzmPWEjglDDWkkDivxSR+clJiSrT2SkeGmRC15V2s9tOjP0JgmrUPzueb6JoROTrkX7sZZAwkQlLsHkICWMD2VWp8MkLoE2vLoajlgu+TdEg1+H6kBx8UGOAiO12V1UtLbE0cjPBxKoO5WiXnL2sMEyxnwZqQfrPzmjnQP50JcmSEb/nv/6+D8NOYD2v2Vuv0JHZuxgiQxCYKHJv0GwXP0NTbBSfCepEig0QLtMS1nICNQmT3nPcfQhz/8x8uaLQUdDsxTsY3E23GURW2k185qMwlGAmnFOkEteZrJ9pRcVBvblhMLImJBE1IbzI9LGC1Cd/CZppepk/XlGAk8DMLv4OHBZrNiuU5OBjYsBPrTuO4/mdnKsAfJ078ayHpliZfSWXpMGl5WHVhAwFMwU4ebF9ApwIHLdYqL/2NI7JzU9/8dZXkoNrNY4I4BKiGbbj33HldAVOcBMFEIyklHx55MgU/RCN7t6w156fzbbzeMoEtygnPs+fI645C8P59ywiy5Xk4CrufwU0FSl8lu3cwXLgvHzEq6mALm8l1g+jEPYxe+1f8+EkAm6Sdncgx/n86ZTFJH++trs5uH0XR2Q40nVe/7yVnwMLJnmTReODi3OchJrAeO09Q0bOP0hsjhDBkLCWOUVGA6gVBHXnJxSTSJS2XEkSzgY0rSzlqoKujz8jKJloqH81tzA7Ww4JqyawK+nmL+GVfVJF+Nn9X1T/WdBLkIHTCJAfQpEvHMc5Q2lBlr3lUiXZnSGrEUUxdDp6MycruZaqju8cvaJVPVVpyfjgCn5jy/8IRFn/HNH2yf1rOyBc7/+hmRJnLwBvZBAQMCU8zqNx0WMS0WXRVK35ukwC4ngBDrr1W63RWCVThQXRLviy4g617h29b99EKpLGq1SWu+EoJsATP//dxBNP7SJGBOpFRrzBlX8BHjRHajM9hfqR3T7jInOz8q/XNRugI5BJW2SQot7qqnQZU8aXpaZo3CnrG6kiYJEV8y5WBAZRPc9uv9o/Auzkcty/0aAw6mbsP0cTTs6zcO7AKcSFm784gZMu8KSTMAFm+wSWms3BLVpJqTfheA2OzHp9URd4Da6gtjuy3C/eYSR4qKojObdqxHSVmkToZJ7fvvl1f/9IhLMCILWeg7tL75GyQG1AM9Ugrcyg0eS38YSbIB2KIrIkADjYwcwqjNFwje14FTmHhkCFMppCX1IUN7ZKa7VkxkZ3sEpFoByuwORRBBMUndyYMp4icQy0w/4JVBZNIoFzKsh8RqAxJ3gSRfY4Q0wnpiNL1PPgA/U14ZqSDEBFkQYNtYyR8GWvtlkHrN3WWmsOqq/o6NuNYLKFfOmrv2D3Ckf+qjd46h6G5Bjhg+czznBPQPbkPJsISJbOoLgOIzSLGaCwPaAq9QbZmaKQ86S0BeULEeGH7roTUVaZTgSTR09RGPtHBVYbRmneexStzfPB3GhoRTABOjmj2TJckpKfRRBZTCS78zY7l6QcGbRxJFmqt8lGSn6nUF3b8ZRGrrT+RJQV8VqUYh89gvaAAhQ4iRGFJ/kzG+XFrxGVwtwQ6sxxSCLg39aaiABijWZ6ZTdSWACKLxGLKVU4d80sx+54srSB415FJ1FMDs9BJP++AzsOsZIAWj0lk5KQcznGwUj+JPA1+dMoqkt05DreP8JbMcpwlE6mQ+KKju2t2fLehjMeN8RkCxgPnEMPylVDaoFZIz/F6yryZxwObMnKk2w2ZjQLETmYdWNdz2KbV8txyvDCOb9eKbMWJv7GLnszTKCi5NFotfMe9aKQpVonZBEO0ZYsQiqbP326HiK7Wx/exSZfNXKS5FbbfHwXinAQx3a4NaZV3CVhXsUnuzFMnp6+gMWsR4Z4yOIb4Gzwh+NjCMg0BsgiRBIqAnfzgF1oSqUzjM8FZ1ypw9kPs3J8ld/ZitXrcPpXUKzMMdt5Twc38iQSyQJA5nFAFnjfg61P7xLTW8Wa5DleR85lOks6nx8IEW5laB83nkeHj0A0b28zmBxHsAGZ3mVCQxYgsrv1C+toBLKgQBCwxXg5j/MX6/6qETbvzqNgGzpjBEsmc5wY70X6AWK1+WECkHSj2d3dEVmbEcZyC8+INmivhuN/jjJId18UumoEIYkJ7JY9PabT1sjctXz29Hyagke6igBAunS7HLLeoyFJvS5azRduwujYnH3nXhJ7qNfviMrZiug+RVEAKIePprPXl5enQC4vX8+m4EgKHumJHgsIr4+7SDtUxZflMQxirdB5ZmzoXu4kBY/r8EVhIi25vgByy5xbb05aSKrNnlvxkN1u6I5ZYIgsOiFNRXa3roRwQyWxVQE5DDAhtcfZFWUEPsV3KbzjPMZMp1NQxmXLUofVutzxPWdvb68Exz4kgEJrNBYtSzMMU1X1QFTT1CyjUXW9zA/LNWV3IShLJQWQ3YP5dWThuF5VQGI30QW005Gv1AAmRmQ9vX1nRnFkxcu1RBWIaRiaZgHRKApLtnUSdFUzhvU3uwfLYLkDKElAdne3dj4eRRcLiCO/5Ek5ty0iIDylZdLtjwJM7s6xHoxw6q2GiDAQNtm/SFSPjj7tzHeXobIZKAlAdnd3Z9dHyS3I0IZ7jgJMRodVLykTM9giicgmU1oSoEiwey7Xa7b6w3FX0E0TKY1J7QV8hgfStUZU37U/3G4dLMbl6bqoPE3c4mB39oE/SlvKaGAy7Si1Msr1ChLAxLrH5UcFgAqdeq4oOVl2US9mIDnZ7dWb1dpQSFtqKehHR2+vZruLYVkDlQQeuwdbt9c8s6+SIIrhw+nGnp5Sxdt42lLTFPRlldxYMiWvI8lUcnj+ucweQIj1WunLT0UAy6er2dZCatldAsvTuL0Ac5lffYruyia0a61+N+DYYHdbZYJ3DoaYJHcM+3yxC47jeZ4PxWPF9zsViFhO6jFEJ4gsQIBa9Le/ACNaqC4Al6cxMFK0Y3e+A9Qjro86XEUiNWlHmumSIhekKu47ywBMrC++q15mz+sowcxSXR33+90ov0Bt6V4DdQENvXJOZkI1ABq3v7zdT93CUOwrqEmqWFGEYFdpWyKbUUNMzIfZyGe5OHR5TrcqQ+pJTBCDM/qP3rWvr27nsMnXgAZgcQAXzH94u//uKGULDixwW2nbUxTgeZHlBFxqV8iQXKbS1P6M3W4HeAedbhMthpJzLUZr1HBbKwHqy1H37Yer29kc2NIBRici4NjBwdZ8tgM3Cjs6SttCjYkKVJz1e7ncEBqPGFbe9oluAD0pfvm3fxSgkojiRAJuSPH2Mpk6WZ8CA2C31xxFluoCYEDsAqT99vr6w9XV1c7OLRC409PVhw/Xnz524Y8Qi9R4SOQbw0ZXxSwrCKTeFaUPn8kkNTbtS8tUJncZ2/s8qem8YPZluHwQlwNBIuotGa2TUiR3nKb50IPCCEfFCJE4ZwESASJ9NM7rTvDUZINyp4cCeCb3DUPVjDTRvjCdSBawmbqkyBJtGLjaQx3K4JCc6/gdRVYad9gAOISBAakr4VBAkZpwu70QAwdhYqUl8Rmp+mXppKQJag3WPiiNDeelADMCVoRbp9CRk4y7tgi1YUBHUEmcQqEE+w/lBuAPK8jYSxATMfU9FRmp9UU3QW6rQEVy7FiYawoiPMS0mDdImUqXDgA7SwaJ3qzINZXuMB6sRAOOZqQHISuQPfg9VU2AU36wXQZTpF9sQX1gBwaAR3QlOToxpUNWWuuUasVuqDh6EIOJIK5p1WjsRU8ANkncrNhn3+agDEWe2fG5AL6L6SZiV9acqn8PMilKIG+OMHql3JUTS/ld7KfbE7eBKio2lDqtuDBw+8RHtVA8Kk3gT8JwiM8wXTh7aISPsTVz5K5gMAsYS8A+F+R5hc7nz5tfT+piyYnNI+fGbYBIXH+hSggmUCgFmZDQzSnUltSelJNqKK7oV/AsGfyb2msh3YJ9QjZ2s3gj20CcuhlRC8dN9KRR2fPk9B/uWdw+V3JjU7ckw8klph1U4O7o7R700xVcW0XpYUjMpiR3OsoYTi4bKDkQ13AZTxohd1JpIkzQ/BjsZo0o1l5Nt9hneXVVW7DEs+R8iehE7nF2YvRdL3WSEzGAkqgjBftpUEu9JsmZJjILvY+m9th11GsaaL0MsRAdYF0CTV4caDt4v/BQOoIaiU29ibHovTfOXsp+/PcsFZ+z5fhjmr6dfBFCz+TNKvVBJiJMh0OkIrQJ7RSAmqhuuFME/FVzbJxl4+RlL9cQxfiod1WNQtCpxSZQhFJ6cDbxSsDC409xZC7Zub9nCfpAypE1gSavwg2qbAsTCV0Y54LjjLlDszJlEI5D9SGEsQfoU4s90dFjfrfSWPjagXvciSJVQMBsJ60zx6XM2Rip3dArZwyhDcwG0QtwMfAjFl1QGRqAq3tVGGBVmuHG+05PN+IBxkSLhmG2nPZ6BiwPriYpY0Ve2oblbrnBeOWCpg5y4Lwq3IG1zcw0buoqU13boF2HnZYadCt7TS0enzpWrC+xNCg+tDoskkwyl7LtlNdUOsWaz4SynjWWYCwB0zu1x8xG9yyVjSm6AoAENWsFRmR0N8VaMb4zzSj+rhuv9gCdi3eXQlI39arNhi6d8gCu7YGGATIWmTm/G9k0H/Crjl6+wGVkENK45HClGzcLqRw/0ul+TS8pTGpOrcnlZEaT3S5SEuiChei8yWakm7Qv8uqAbLPfVINOxIwbZ88M89o6IvJX9NqopI706lwnxwI1GSAcQCAKHE+EK/0iu7tICwQhdPdrZygGfqWEFoOyUivHSa0wue8tOe5RfBeEnRGg+h6sOLAboSHJEaXKsK/ag/SrB2YlmXrgV/y4CijlRKzubTLP98tKqcIVYg0m+7C9mzAQjWdCQ3YCFYCkG15a09Xgsxu7414xCUDFvVuBH1wyHpeJZaYlG1VIEEBIEtfuARthVHVhGJ7gqVrg3e14f1CXTzzZdh8+er+rJLkfHvE1AQT1cXfaYV62B7hErDFwtoyws8iL3bSaIBO4SdbmZf0ykiwrenN2VVdTdp21WQPoi3qTCfsA+YRfYuGgXE7Z9cn7StUkJYJGh1SxEQlJiFSZQ0PRjGTZbERWiPp6L20rn8yf/2LCTaRimL20aek9Jn5pC91I92WlzPQCRCP2TGJWePKcr11Gaj/BrVA6TMsK4ijqvU3G+cYUrD1MS+j+jLHgu0qhLMqJjhYozOYztqlXo6hVywvr2G984fep3bv0rGr6jt6M/ZcstRdl0c7i9902G98WcSSl3Y7FrYGE9u9rXSVaz0x54XC3O/ya8rw7iFdM7vxBJARK0vq5GGzDhS9grPS/cUha/c6iJakhS9a1ZiK4bS/qFfPvOqH7K5FM0VtjLWVVS6wvrFgLSdT/tiGRJ94aqfuwocRxc4oLK+592x5nbCeSmxQxJknjWvx+228bEa9XWiMjKxXdpMuNj2v9p0iTW+fVPP44ZauixpefdPYlxJbWWojaG6RkhbWFAzTftHQ4f50BppqfYl3V/0xISimdSilSi3cTQWmuNhzb87+lbA/LWtlIQemk1GzgLr2o12rollb89lRprW6Mjp2W4vWWryTBL/NWP3NHyq9VvEyaeXWWEnMGT+FJjKP/p0jqysTlvmoPbwivfev9BIskvS95KTP7ZHPrLzRN74tLuttY6kykYK7fdyGCpwMmZm79X5YqfjH7t+eDH07wWwnMB3i3yTcreNK58W13Jt2r2GUEifVtjWg9qHjEB//Z5fiKBM2n5hestLh32ctVh12dH1bjOYZdGfQbXZFv1JpK5A1nGana4MVxK8ce9Jujrtgd1RPhZaZTrw27ojDuN2X2Nnan3tfpO9abQ1Df5NKATnPUFoXhxCPzz4P5GJ7batM3h47Escte5PVaw64gtkcT906Js9e3TLgQUxB1rcFW0asZBnxBIC8IompqZiPoZa6bhg7fG6gb4ezeTttS0V3UcjVyf6dqBrfRTc2gpZ+0NXDcQDfwhvBiQbRi2yoMdAPfVCfvpCdJn10TNVPX0RxZXzDBpWG/rT3gNbSaEj5PNbT2plNC7VqZWZfHDMsW+uXYqzU18tRC2wyOCXTVO3mPG74Lo22ZVvw2BkllTexUIST1oAxlNqmTjcRrYEnS5+CXcMCpjmGu4okAAAfmSURBVDJ+sEY9UU+LXaQvHDFLF09nC8xYasdIvGuUJFw2Lyaf1zKYE8uhrnliYoUb2WGCw6/6gXs8VcO3/rCL91pW/NKg5g66AkLSKZNn4mvsoRG/ZMPgzrfoO7YNaCRhG8n05X2aVbaIUqi4pmh5FS8ammboIhl6kVHpBVODtsBMeu8Q3UG3IYW1SMpXpnVssrUIZ72O6GNREUjLGxkWkga3R64VcdOUBNyQugGuIe9CNjeaEOqQEpvdesXv9IbBdLEcLq+uQ67MVHDCNSYool9GvuNUqnTjO9S5I/A5x/HrwxARH99GNJtoAhtWGBH/VsI6YGWUMgJYjALG4RVd4Be4vYCtdCPbDuBXjgGVGhFdxkZt46WkgtaCrFpqRE1qLSEbKljxPk8PV8Xs4zbBaTmZ+t9Ca/Ci+ShaVZEMLEu4nfQGDq+CpmVqxeuwG8QAANcwJrQ7xMU/i20CkWISENgSVVH7wOXYGKoxeaUhMU28nnLxtJUUIS9lshKahe+l06QTr2UkNol+i+WjaPkib8VvgxdUBwRVIfVgvwmNkchbvQAwCske/iYEI+fEBzdZgNQe0ANBG9UEPDVlgrXZJCjieJcu0l9LSlgX1MTcuAmCINQEnINim8zgi4xIHxBu4fhgnYsrHWzhhLcqoH2nZOmfIPIaug4vaaJt2sIGES7sI0mfy14sADgFAeom0k+i28HGBFiV0ldbLxBc0ySK1MqDbr82Y5MEEqHLYkKU3ooM82YwGYQbfeG3MNK+0wn1aGSfGqIlOGB3Eq1FOl47kYuFSNvg+4c7RmHc9EVv1EiRDC5DciAWPy9El0KEGYHuC8h2C9PqWezje1iNg2USGewcKNvRNxAKZL5rx2CsjJi0EdCAFzEruEyDPJFd74NPCTAaperuMpFIEROpZRgwYHFJc+NvVdq6TJDq0wjCHIfRPOZuM1ASXOeA7ehacoMwGWlTfFO8fQWzRRhZdGxE7s3QXVCw8AixRGODPbWwuQqJpcgYKsaeMEvSE4lOQ/zbpegpsJWDZby0XYOGJvRAamWT8CzQItJp5jLXMopIfDChtwyNZNhFxFHTonniRj4YM0TS1Fqx/IpgEDSZG2AiBm63ZARBdJnQJ27X0PxIfwf1P/RlplRJuDHesBQRWC9uNz5xyUQFCO9EHB/pwA/dHo5K+PiS0iVCmik5eEYUPqBKYinhEuZ6gImgUqvzjCDKJxPeMVcwV9FtB/BXiezbQAI3SsY4UiMKHAY/5P241AcTG+Q1ZuCHNEGQkhAUN+nRJ82UCHcLVlTfHMITISlwkkXrH6ZUpXaQzODGjY3N2TQ8r7M1CH0KKQ5GiGzlEGgYqV5QBmITArMSgTBuqPSEvjfpYKEjRXFIyHGNzoUiDRRka6j+Y1r/cjhlahJwrMsFbiowLcrKtFY0WKW/S2wPEWHXwHbpvh+0DE09iicUTNeB0ksERT3aU7EWJPFem4rJNDXIdmiWGh14pMkr64olkmch24h5TZ8aG63VOMKXwa5cuAJGtDZNM1aGfgxPKOWwOTiY7RAUN8mDCSQ6gzRaD06JGrOEFyToVpSmBvg0k43OSPcoykr9SBRSCHcVJLUiGU6g57iWpJHJ68AJeUoBd1HubJPXJjHPJiEkjUKC9y5vMshBOCIMpbgmem1IxHc5AGwSmsVpikTYkXF8srFLK4QE/17oijQMIQ6APD1UMkLq+DvZ2g5TRcUKto0mGBAfHNnZlEBCWrgfEtsGW3hQ304D7k7bRM8ghoMUTgK+VSBNgsOSSmA+mAzgErNwTZlkBk1NE10EjwgQabPVjMdtNK4iSkUiMQQYfG2c3mDLEHgGl61PObx/aQh3h2lHtHItobqlNT3H77UBESDjDQKGQa+hwd2NMEa4j2avWB7hZSU4p0N7zgzLXTyh2yPZODxhjzqqiTuCHKNFOl1o3haoKHmqhSGilG42mzzauEKJBDmVtCCMwKiP5BZ0iJpMeks2GfdxKWnpsC8MXo9We9Owksc7PZX9DtNbAjJ60bTExlDHF5d91D6CqhnjYRfTq8rG5HRvqLKCwyvqE6uxeFCKBFp1qvdo4hHIpckQeZ/FM9jsFEuNuDRRhR/MFkeC5Y166M0g4sSi4kYImAk2Y7lCyAUTISk5rS5etUlUluwNJhLSaUXe7dOjaR2pFW7CUPXdSH+EV2auFSyP+qMWe+tYxCFHuitrNKvdbCiswj4YgE5KSz06aiSfahPmrUhZeQ0XMbLZqUpfmueHp4qwG7ASgYRQSaD6vWjsOQrx1EWPqg2FBDvwWD9PJmxhAe6kTNhpw9FBORyvEMywxYZEbfVyC2odhsTEBQjHJoCxuBTaoALgksBX00570RpBciF9ahgSZEWiEbYzqTONV/doV6xerqEyRCApo91U44sQZNIGogFfY08gERJdfSvE6VsG2nvdGvfCsCMzKoNjmkbe9SCVTfClTaJcaWzBnbZNix8EVurULLhlu6kZkddDtMomvHUfu0GvaBqa1sWBh1QE/NVg0qt6Gf3qBrdsa6hctaAMhqGJLrmTZgj9emJuVw88TzWsBolELBPccpPglYjdces9uROjZc+th6tl7IFb8RiSciq9uluJ+jZ0GyWehoPbuOFcafY2jh9b+ezV5chDgOH1QBnoxYWBK/k0d9jzFrw7uSDXe5Ugw3B7kv+VLq/+Lt/lu/wnyf8HeWg68cpAU3IAAAAASUVORK5CYII=;" vertex="1" parent="1">
          <mxGeometry x="457" y="265" width="108.71" height="73" as="geometry" />
        </mxCell>
        <mxCell id="Vt1mPxma9DSWi93VX6_u-6" value="" style="shape=image;verticalLabelPosition=bottom;labelBackgroundColor=#ffffff;verticalAlign=top;aspect=fixed;imageAspect=0;image=data:image/png,iVBORw0KGgoAAAANSUhEUgAAARwAAACxCAMAAAAh3/JWAAAA/1BMVEX///8AAAA3c6X/0kL/zz43dan/00P/10f/zj03cKD/1UU3d6z/2Ur/zDv/20w3c6b29vYnJyeFhYWqqqo2bJk0NDTX19fz8/Pe3t5LS0v/+u3s7Ozl5eXZ2dm+vr6wsLA7OzuQkJCZmZnLy8uNjY15eXnn8PYdHR1wcHBGRkZhYWFXV1e4uLguLi6hoaFlZWX/6qT/9toSEhJmlcBJeqP/8M6Ip8P/4nYhISFylLT/3mf/z0u2yt3/44MjbKP/ySlFg7X/8MLT4Ov/12y8zuB7osaivNRfjLMiZ5tAfbC3zN//5pbf6PD/11f/6a0eX5D/4GD/34n/1mD/+eb/3HgyMHtnAAAQW0lEQVR4nO2dC1ubyP7HZ6q11epKoOEihDuGWwZLW+ue2mjdaj2nt393z/t/Lf+Z4RIgkGiMkpPwffZZYwKU+fCb320mLQCdOnXq1KlTp4fo+OrLzen1W6rr05vzq+O272hV9OX68tWr8fgV1XOs8Xj8/PL6C9P2jbWu49NXKZZMz6kOD8fj6+9t3127unlVVcbmkOA5Fdq+wRZ1PW5k84xo/G5zjSdhMx6Pa+yGwnl2+GxTXfMVhXJ5fnV+2cDm2e74a9t32ZKuKRtqGm9LbJ7lbHZ3b7+0fZvtiBAZJ2P/Pi6yeTZhs7t73fJdtiRqLqlPuXxeazdY79q9ybZE4SThiPn38wY2mwxnfENffhk3sdlkOK9e/Qe/umqaU5sOZ3z59rLZbjYcThalGthsOpwZc2p39/Vmw8ntJk+Md3c7y5mGU8NmU+EcT+t8XGWzqdOqRle3VTabBUeoMZhc/7mtsiFwPn9K9O1z2zf/qPp+ejmeqSoaCufkBdYe1s7eSdsjeDQxpw394roYnrJJ4Ozvv6Da2/r7qO1RPI6+X766D5sSnBe58fxYSzrH/16ETT6tUjh7W3+1PZDH0P3s5vXrApy9CZudne2fbY9k+bpZwN+U4KRsdrZ21m5iHS9mNxM4eymcra3ttQtZpwuyyeDkdoO10/ZglizmckE2KZwim62LN20PZ7m6Gi/I5vWfBE6JzdbLb20PZ7k6XZTNrxsAvu3k/oZoe3vNovnbBdm8/nUFwF87ZTbbW20PZ6liFmbzFYCjF0U2BM7Lf9oe0DJ1PL1X4E5sXv/6jovynQqb7Yv3bQ9omZr443uyIavFH3ZKc2rt4HwZLzSnXmOHA95vTQJVwublesE5H89hQ5pctyUwv369uyHbAo/2dqps1gxOWlhNsTm8vX339c86nd5c0R2TRz+m2awjnKm1u93br+dzdm59LrDZytisIZwpNofP5mxM+ufnv7br2KwtnAKbd4nVvDn59OFfNfqxh0vMvTo2awYHO+SpOfWMbM05Ovm/P1Lt/7G/vz/ph+5VCqoCm4P1glOz/+b2HL//JkeTAsr5vJjBZs3gXI2nYjhZrHv/Rw2b/bls1gzO8bjK5hZX2/8syGbN4DBTud8t9safFmRzcLBWhSe4PKzkxe+mDGe/6nCa2XxsezjL1fVhpWb4E4Cfi7K5+G/bw1muzsdlNrenAHybF6iKhXiBzcHFmq1cHU92pu9mcD4syObgYt0Wrt6W6/AqnHux+d32YJatL+NSj6IMZ8rfzGJzsG4rM1hfD0v9myKce7JZO8OhO9oKfb8inHuy+bhuHofourjfbwrOXdkcHKzfpCL687YCZ//+bC4+ricbYjs1cGbnfttlNBe/13FOJfry7jZTBqfMZqdoLrStVdDBx5P1qqmquro5TXSO4byostk6OWrWP+trNDXCcCqF+DruaFtQH15UmxRbJ2+m1fZttqMUzlScKnviNWtP3FUJnFKc2pmOUxsMp66ZXs5vNhdOMxuMZdOnVSObix+f/r5Yx5boXfWh2W62yZeH3n/cZDh7jXaT5DufLzYcTu0iTNYH3XTLqV1oOEiP2GA4JztNizAXyfcV3/+vTKuQ09QlX/JN40aKg4+k/D76m3Qp/gc2ZAsjBvSXfdHfWw0NnJcHL08+//xIDOdi+kuvyrLv48HyhvFwWddC0Exe/L3VwIb0tWiaU2M4DnSWdSPLEt+D+nKuZPVgfqm/thvYZK2/KTYahHC0nBtZongIrcFgMPcvxRSU6UMYQVaSvw9R0CQ8Ohhkn/zc225YECdoDipfO1OMM3K2/rCRPIJcGJ8ZEKJ5x3mwp0tEQRDQn5Kn93tx8rhFmMjNDz862bvY3q5hg6fV70pXlE/P1pc6sIeL8fBNxUMIw3lHcrBelEcGhy2e8ebbj+2L1Mck3ob0i39Pb1CS/eRsb2nDWo6Su7LxnGA1ec7fGOomB/umaRo26wb6kPxqJB9qsPBLrqM3n3+efPv0X6zf305+fn7T0C+WpVWEw9IxqWAwIj/N2QdTOmeT3wU8HfP5qEJ4h8nZqLMVhMPBXmRokpKa0Ox8cEAOKWVFGJeWvX4YHDKzpIXPfhxhlxOTUTkcQ/3G0JpxsDCswmEKPN0HwTFXDY5qEzB9yVABh71GnLgUXm46nulV4eBpaU1ePgQOt2JwLMKi50jYGUpnHIAxjtJItSyN5etPqIED1Dz7WS84GnSdPCJHmiKDEMrYhLD36Nc6nzo4E60XnLCfgondMOSIuQgaKf4Qecuoievz4cwJdzO0YnCSzEvyOUsAvAiy6SHbrOX0IetOn7E5cHBw0Z0z4k8tlOVuimX3YY+8GrDVfA48PpyVyXMUOORVxsXZPyPhclFFpt/vQc9RB2zjORU4vDQofsrWZMh310rB0aDsOPieyAB5lETxxJ1GjedU4Dhl/7tGcEIIoI8thjVkjpQOnieLScoSNJ5TgeNBsfgpgWNXzlA4xw98p5IaMKErDeNR4BqTC+RwBGsgKqna+uchZDiAkm55SYIMYZb5mUrceE4Zjjw5iWoajhpkiUJpqqpnk5o+b40SODp5YUw+hHFbnVNnFI/Se3BNlD8jKZwDB+Kwbzq+pGOqpSfLViDwOkmfDK9atJH63TORST/I8+scjmDkSGGvLdPJO0yI0ybvCj0TNjYFEzgFzYJDiiUavegfNJmr2ODSYpXHFpS3jXM46WsYqY1lzBOI2o0qQcQNGaAwWsLEYYzZtRWUJElPbC4uYSzDobVJMgURLDb5CLTsekOYe/8CHBmbnNvyUgQL8Vj7wYgaNwMTp4mHyw2azqBwaFuUkRU8yN4UnMn6QUjgJFci5f7k0GgChxhVZnwTOIOzea2TJ5CaPH0cf3E9ZalJnxTfK9d4Z2WHHMGzGXAED3ppkCJwRvmhUjHi83m44rJLW0U33Z4IGzsgDoBx7XTdU2RA0QWVVYYj1kyr2pUnAqefH2qTP9afGn4GB//UV+EfeOpLPuSom0C2GeW3y3JNJ1TynBqHfAc4VuLLI7F8UArHySdjy7JjDzrx0LI03xFBPlCxsX6owAnLDQoCp6ZaTVywPjGyLFIHpelL4PQU2mevvchTizzDGPscM+qbA+ofFCACWfSbTphfeE6NS+RcmmUWK4MoywS8go0UV35mtWqfSkxsB9SKTUImxP+TFQdoqt54wj3hWHRtoze1sGBl2Wcho07hJOAWHdEyJXE44A5DAFVVBIbPk9jKM4zedPx8OMWiVSMIfI2nWWClVaPpKZ28x0HheEqy/tVc+z6dWEfAT3WoepoJQs2LcfYHQxD5YsPx94HDEKMMqJcXSxlyKjUpK/J0nMsshmJrDJhPJxHyZAgagzgEsa1jD4lzHsVsmvP3gdOfxK5aOFmelXllLssvFfp2Q4v/KdU3cNYhxcglxfkg6xDwTftk5sPJfTkpGbKifVCEI04W5eW44HVotMpfVVKoVmRC+px0nJmhSXYjNnV0phf1iirBiZrgFBa6aIzPkmWCJN1FRZvbvXsOZflSoEkzC54bugVDDhpKT7om2rjDiIWF+rIIh5w2zCzBgcP86mFh/rCTKCXQiTVq3XYC26Axw4FOoYpEDftRuJlxtl/gkYw1CVEWdbFnzhktmXAKHGe2oxcMRC9452RDy1nbfod3qQ0buMyWZIFJ0+SGNJBPmoYjJMo1TzVMRhQmnw2SWOTaecaXkqPUAmQpA47wSDkJtPsDJTXZBhOmSY9mtVqCSjRmeLaMMzZBCem9CGhUU/ohqTDMUfWpTvI62KMDNrNfY1NOLM6lVqXBolI2YeEtarVG/uujjfwOUh3y/HAUYhkLp6eIBioV1aw/RbAXsUQROaOaCpEtFkM98AMpTqOzRaeZHxJDwrHLyUoF2cjWoCWUGSAxp1hyydX9MH8H26G++ELYMhSYCRx8+/gGdZOE1sFyHhjTvFWMEepmZumI1v0xlhXhVCfA3sRT7WDkJ22IEDav7G2UJJU4k4j0FLDzdGnibnHBKlTG7UvEiSAtIoCo58kaw6xC7bcCsiMaQfo8jSQxRyPWQF4GHav2ZarBKnRD5wqqpBLqs9muFBKmRaYuYt1T1sSvq1Munp+KeCspfJt0R3FPVaCDRlmBMJq7b3uuCkT0qQ+rXeQVlc0mLTvScfeQmbTzkPzwR1uBU47O7tzLN/Zrn1R9mqLGfT2OcLaTLJyr3ADef0FWhJoFFSQBzQxUEDsjSprDVQQQXFMCgQdUCXCmZxHLQaxkgj7+M0UZsvoQJ6QysJGu8EN31MdT0VmBBSwg6zK2nViQrWDESsihK8Ihvrv7+0xkAAxHYXo8axPL6WH7UDxiOTanSrLcB5wIoOggDIfHpgEZzQCqB/QBCETgWEpvEIVAF0CggBXZr6M6ZOm8j0tKdKYiR4ppm0WB0f1t5wxxrgNk6tYxHA9fwYoJHIclqFnEAoHW564SJnA0MIiAJyZweGqugQxYpcZPtSMW0e9mjEgpYZMickTuES2wTBI61FpYl9iQbdIemh6ZMFRi5OAPyOB9ByEwQqBnmibQpNBVQI8DugYCA+i2GYJYBXoIoKaYzVupnlCBCfJKGGfK3oi024HWv38hkTY+RHJ+thteBcSQaCmffSjzfPK5hvADkHmRsSwgigzgGSDyioA/FiywIsloFMi04RT3DMeDjIpdEH5XcXGEf9w/WJu11KCuSLxnpXTDP6kmsMGzyYwSbRhU7tC671xjuBldPdaf8eEq1OZUoa4oELIx7NMvVsV5f9cq7SXCBqbf99L63XFaK9oQSHfC4XTZxcYTuXkgxxYlcelvirfAmpvdCIep/qasxCaLGpFlyn76jYjYg76NKwgZKDIQWH0EfQP7T7kHZ/towSKZjcDjMTKpxxB51yJvYfwWAyyRT0xStmSgRvQ1Y9EjkTMAjABkeWDhQ8ECE/hRpcEI2d5kY6Ri2R6MAxKQHdrLJFUYUjXSbeY0hhGqiZDoDySN6TkoHgBX9ogz1zh+ZAlDNwJOqI2AMVI9UtTKHj8CaePIG9BKw8F+ztNAJKHAR74NkIpWI1qlYhwfhWypC+7gJyqx2BIGHIRGqGko2WKDTeysX92jFvBA0ck04kLeMxExCAlndBZgVSAO8eeh6ACQLN+pZ7mHSQp4hFkiDYQcsAwgugCaxsOr36VKiSJTVF1I1xNIdPeNINRdsl0ZG4/vR4ZhBpDW8RFpz5cjvWsC3k3giDqZlBiOhTNfAkeBhNTAAQwpKXGNNUzh4KKC4iJwuCIcHqxc02fg+KEwQDiap1/4hj6UPFaCNZIqX3eQfZaVQcACx2WMyCCThh/akSP4rgxQxOJaoec4xA1bHudZskS+2CX3UUC2iYm4DnV9wY5kM5A1SeQDe/Gvtz2aBJWNQj5ETr8OSCIdjpBQ82DJWwJDHGsWiugPupxA/jdwpt7OYxZDT03+Y8hHK5PnVMQjd2Qj20CI4zXbMRF2NZmn1rnF75pfiT1/SxDDq5rhuDaHTMNwdT0IHKTiMugh19SMlYrPSxAjK8q8dbhOnTp16tSpU6dOnTp16tSpU6dOnTp16tSpU6dOnTp16tSpU6dOnTptkP4fBvgcyW/zWqEAAAAASUVORK5CYII=;" vertex="1" parent="1">
          <mxGeometry x="629" y="261.5" width="120.34" height="75" as="geometry" />
        </mxCell>
        <mxCell id="Vt1mPxma9DSWi93VX6_u-8" value="" style="endArrow=classic;html=1;exitX=1;exitY=0.5;exitDx=0;exitDy=0;" edge="1" parent="1" source="Vt1mPxma9DSWi93VX6_u-1">
          <mxGeometry width="50" height="50" relative="1" as="geometry">
            <mxPoint x="468" y="399" as="sourcePoint" />
            <mxPoint x="230" y="302" as="targetPoint" />
          </mxGeometry>
        </mxCell>
        <mxCell id="Vt1mPxma9DSWi93VX6_u-9" value="" style="endArrow=classic;html=1;exitX=1;exitY=0.5;exitDx=0;exitDy=0;" edge="1" parent="1">
          <mxGeometry width="50" height="50" relative="1" as="geometry">
            <mxPoint x="369" y="301" as="sourcePoint" />
            <mxPoint x="434.25" y="301.5" as="targetPoint" />
          </mxGeometry>
        </mxCell>
        <mxCell id="Vt1mPxma9DSWi93VX6_u-10" value="" style="endArrow=classic;html=1;exitX=1;exitY=0.5;exitDx=0;exitDy=0;" edge="1" parent="1">
          <mxGeometry width="50" height="50" relative="1" as="geometry">
            <mxPoint x="571" y="298.5" as="sourcePoint" />
            <mxPoint x="636.25" y="299" as="targetPoint" />
          </mxGeometry>
        </mxCell>
        <mxCell id="Vt1mPxma9DSWi93VX6_u-11" value="Database" style="text;html=1;strokeColor=none;fillColor=none;align=center;verticalAlign=middle;whiteSpace=wrap;rounded=0;" vertex="1" parent="1">
          <mxGeometry x="483" y="359" width="40" height="20" as="geometry" />
        </mxCell>
        <mxCell id="Vt1mPxma9DSWi93VX6_u-12" value="Processing Layer for ML" style="text;html=1;strokeColor=none;fillColor=none;align=center;verticalAlign=middle;whiteSpace=wrap;rounded=0;" vertex="1" parent="1">
          <mxGeometry x="230" y="366" width="95.08" height="12" as="geometry" />
        </mxCell>
        <mxCell id="Vt1mPxma9DSWi93VX6_u-13" value="Source Layer" style="text;html=1;strokeColor=none;fillColor=none;align=center;verticalAlign=middle;whiteSpace=wrap;rounded=0;" vertex="1" parent="1">
          <mxGeometry x="75" y="364" width="95.08" height="12" as="geometry" />
        </mxCell>
        <mxCell id="Vt1mPxma9DSWi93VX6_u-14" value="Web App for Data Visualization" style="text;html=1;strokeColor=none;fillColor=none;align=center;verticalAlign=middle;whiteSpace=wrap;rounded=0;" vertex="1" parent="1">
          <mxGeometry x="650" y="364" width="95.08" height="12" as="geometry" />
        </mxCell>
      </root>
    </mxGraphModel>
  </diagram>
</mxfile>
